# xmcd
#
# Track frame offsets:
#	150
#	15712
#	35217
#	54345
#	73385
#	88915
#	109810
#	130075
#	145207
#	162787
#	176740
#	195212
#	212732
#	230585
#
# Disc length: 3353 seconds
#
# Revision: 2
# Processed by: cddbd v1.5.2PL0 Copyright (c) Steve Scherf et al.
# Submitted via: audiograbber 1.83.01
#
DISCID=ca0d170e
DTITLE=Star Disc - SD069
DYEAR=1900
DGENRE=Country
TTITLE0=George Strait - The Best Day
TTITLE1=Trisha Yearwood - You're Where I Belong
TTITLE2=Kenny Chesney - What I Need To Do
TTITLE3=Faith Hill and Tim McGraw - Let's Make Love
TTITLE4=Andy Griggs - She's More
TTITLE5=Ty Herndon - No Mercy
TTITLE6=Shania Twain - Rock This Country
TTITLE7=Toby Keith - How Do You Like Me Now
TTITLE8=Keith Urban - It's A Love Thing
TTITLE9=Tracy Lawrence - Lessons Learned
TTITLE10=Chad Brock w/George Jones and Hank Williams Jr. - A Country Boy Can Surv
TTITLE10=ive
TTITLE11=Phil Vassar - Carlene
TTITLE12=Alabama - Twentieth Century
TTITLE13=Paul Brandt - It's A Beautiful Thing
EXTD=
EXTT0=
EXTT1=
EXTT2=
EXTT3=
EXTT4=
EXTT5=
EXTT6=
EXTT7=
EXTT8=
EXTT9=
EXTT10=
EXTT11=
EXTT12=
EXTT13=
PLAYORDER=
